<?xml version="1.0" encoding="UTF-8"?>
<svg width="24px" height="24px" viewBox="0 0 24 24" version="1.1" xmlns="http://www.w3.org/2000/svg">
    <title>JavaScript Icon</title>
    <g stroke="none" stroke-width="1" fill="none" fill-rule="evenodd">
        <rect fill="#F7DF1E" x="2" y="2" width="20" height="20"></rect>
        <path d="M16,17.5 C16.5,18.5 17.5,19 18.5,19 C19.5,19 20,18.5 20,18 C20,17 18,16.5 17,16 C16,15.5 15,14.5 15,13 C15,11.5 16,10 18,10 C19.5,10 20.5,11 21,12 L19,13 C18.5,12 18,11.5 17.5,11.5 C17,11.5 16.5,12 16.5,12.5 C16.5,13.5 18.5,14 19.5,15 C20.5,16 20.5,18 19,19 C17.5,20 15.5,20 14,19 L16,17.5 Z M9,17.5 C9.5,18.5 10,19 11,19 C12,19 12.5,18.5 12.5,17 L12.5,10 L14.5,10 L14.5,17 C14.5,19 13,20 11,20 C9,20 8,19 7.5,18 L9,17.5 Z" fill="#000000" fill-rule="nonzero"></path>
    </g>
</svg>
