<?xml version="1.0" encoding="UTF-8"?>
<svg width="24px" height="24px" viewBox="0 0 24 24" version="1.1" xmlns="http://www.w3.org/2000/svg">
    <title>SQL Icon</title>
    <g stroke="none" stroke-width="1" fill="none" fill-rule="evenodd">
        <path d="M12,2 C7.5,2 4,3.5 4,5.5 L4,18.5 C4,20.5 7.5,22 12,22 C16.5,22 20,20.5 20,18.5 L20,5.5 C20,3.5 16.5,2 12,2 Z" fill="#00618A"></path>
        <path d="M12,4 C15.5,4 18,5 18,6 C18,7 15.5,8 12,8 C8.5,8 6,7 6,6 C6,5 8.5,4 12,4 Z M6,8.5 C6,9.5 8.5,10.5 12,10.5 C15.5,10.5 18,9.5 18,8.5 L18,12.5 C18,13.5 15.5,14.5 12,14.5 C8.5,14.5 6,13.5 6,12.5 L6,8.5 Z M6,14.5 C6,15.5 8.5,16.5 12,16.5 C15.5,16.5 18,15.5 18,14.5 L18,18.5 C18,19.5 15.5,20.5 12,20.5 C8.5,20.5 6,19.5 6,18.5 L6,14.5 Z" fill="#FFFFFF"></path>
    </g>
</svg>
